<?xml version="1.0" encoding="UTF-8"?>
<svg id="Logo" xmlns="http://www.w3.org/2000/svg" viewBox="0 0 164.27 75.98">
  <defs>
    <style>
      .cls-1 {
        fill: none;
      }

      .cls-1, .cls-2 {
        stroke-width: 0px;
      }

      .cls-2 {
        fill: #231f20;
      }
    </style>
  </defs>
  <g>
    <path class="cls-2" d="m24.75,23.11v10.39h19.5v9.85h-19.5v19.75h-12.03V12.72h35.21v10.39h-23.19Z"/>
    <path class="cls-2" d="m89.49,39.13c-.45,7.36-6.38,13.19-13.64,13.19s-13.67-6.31-13.67-14.1,6.12-14.1,13.67-14.1c4.92,0,9.24,2.69,11.64,6.72,2.89-2.97,6.6-5.54,10.87-7.3-.96-1.48-2.07-2.82-3.42-4.08-2.36-2.2-5.15-3.92-8.38-5.15-3.23-1.23-6.74-1.84-10.53-1.84s-7.31.62-10.56,1.84c-3.26,1.23-6.07,2.96-8.45,5.19-2.38,2.23-4.24,4.9-5.58,8-1.34,3.11-2.14,6.23-2.14,9.99,0,13.58,8.6,25.58,27.48,25.58h25.61v-9.81s-7.02-.01-7.02-.01c6.09-5.16,6.92-12.02,7.04-15.65.05-1.4-.06-2.79-.28-4.14-4.91,1.21-9.25,3.2-12.66,5.67Z"/>
    <g>
      <path class="cls-2" d="m135.21,32.17l17.34-19.38h-15.23l-10.58,11.83c3.67,1.96,6.53,4.6,8.48,7.55Z"/>
      <path class="cls-2" d="m131.92,37.17c-5.67-3.78-14.19-5.73-23.46-4.8-.42.04-.84.09-1.26.14v30.68h12.13v-23.21l19.35,23.21h15.15l-21.91-26.02Z"/>
      <path class="cls-2" d="m107.34,21.29c4.42-.44,8.43-.18,11.99.62v-9.12h-12.13v8.51s.09-.01.14-.02Z"/>
    </g>
  </g>
  <rect class="cls-1" x=".28" y=".33" width="163.74" height="75.37"/>
</svg>