<?xml version="1.0" encoding="UTF-8"?><svg id="Layer_1" xmlns="http://www.w3.org/2000/svg" viewBox="0 0 252 252"><defs><style>.cls-1{opacity:.13;}.cls-2{fill:#2257a0;}.cls-2,.cls-3{stroke-width:0px;}.cls-3{fill:#10243e;}</style></defs><path class="cls-2" d="m232.33,117.11c9.76,69.39-47.52,130.85-117.44,126.31C49.04,240.19-2.66,183.42,4.04,117.09,10.21,51.06,73.49,3.67,138.46,17.01c.13.03.21.15.18.27-.02.12-.14.2-.26.18-5.84-.78-11.71-1.16-17.57-1.08-33.76.36-66.17,15.82-87.38,42.12C-1.71,101.43-.04,164.85,37.43,205.84c16.64,18.51,39.76,31.03,64.42,34.61,27.44,4,56.02-3.03,78.95-18.49,14.43-9.66,26.74-22.57,35.48-37.59,11.8-20.01,17.26-43.72,15.59-67.21,0-.13.09-.24.21-.25.12,0,.23.08.25.2h0Z"/><path class="cls-2" d="m156.05,24.28l-1.24.42c-4,1.48-7.6,4.15-10.23,7.9-.45.65-.87,1.31-1.24,1.99,7.33-7.79,19.46-9.21,28.47-2.89,9.01,6.32,11.8,18.21,6.97,27.75.51-.58.99-1.2,1.45-1.84,6.91-9.84,4.52-23.42-5.32-30.33-1.35-.95-2.77-1.72-4.23-2.32-4.72-1.94-9.89-2.12-14.61-.68"/><g class="cls-1"><path class="cls-2" d="m227.34,128.94c0,.5,0,1.01-.02,1.51-.8,59.03-48.89,106.62-108.11,106.62S16.58,193.97,11.57,138.91c-.22-2.14-.35-4.32-.41-6.5.43-.28.88-.56,1.34-.82,3.93-2.35,8.03-4.38,12.26-6.06,10.4-4.17,21.63-6.3,33.09-6.13,39.5.63,85.04,16.77,121.66,18.17,11.18.73,22.19-.58,32.72-3.8-30.69,7.86-66.26-3.19-95.46-15.24,37.3,6.26,71.83,18.24,106.36,6.76,1.36-.45,2.72-.95,4.08-1.49.09,1.71.13,3.41.13,5.14Z"/></g><polygon class="cls-2" points="67.91 163.15 67.91 172.21 84.94 172.21 84.94 180.81 67.91 180.81 67.91 198.07 57.4 198.07 57.4 154.07 88.16 154.07 88.16 163.15 67.91 163.15"/><path class="cls-2" d="m130.83,189.46l4.91.02v8.56h-22.38c-6.12,0-11.01-1.44-14.73-3.88-4.1-2.67-6.78-6.53-8.18-10.96-.72-2.37-1.08-4.9-1.08-7.51,0-3.28.69-6,1.87-8.71,1.16-2.72,2.78-5.04,4.87-6.99.08-.08.16-.16.25-.24,2.01-1.82,4.4-3.27,7.13-4.3,2.84-1.07,5.92-1.6,9.22-1.6,2.23,0,4.33.24,6.33.72.99.24,1.95.53,2.87.88,2.83,1.08,5.26,2.58,7.32,4.51,1.18,1.1,2.15,2.26,2.98,3.56-3.74,1.52-6.97,3.77-9.5,6.36-.93-1.55-2.18-2.89-3.67-3.89-1.87-1.24-4.1-1.96-6.49-1.96-3.3,0-6.3,1.38-8.45,3.63-2.15,2.23-3.49,5.29-3.49,8.68,0,2.54.75,4.9,2.03,6.86,1.6,2.45,4.02,4.27,6.86,5.04.97.27,1.99.41,3.05.41,3.6,0,6.81-1.65,9.01-4.24.31-.38.61-.79.88-1.21,1.05-1.6,1.73-3.45,1.95-5.46.03-.2.05-.41.06-.61.49-.35.97-.69,1.51-1h.02c2.72-1.7,5.95-3.06,9.53-3.94.2,1.18.3,2.39.25,3.61-.05,1.82-.31,4.55-1.54,7.41-.83,1.98-2.14,4.04-4.15,5.86-.14.14-.3.28-.46.41h1.21Z"/><path class="cls-2" d="m179.53,154.13l-15.15,16.91c-1.7-2.58-4.19-4.88-7.4-6.59l9.23-10.32h13.32Z"/><path class="cls-2" d="m180.65,198.15h-13.24l-12.45-14.95-4.44-5.32v20.27h-10.6v-26.79c.36-.05.74-.09,1.1-.13,8.1-.82,15.55.88,20.49,4.19l6.55,7.77,12.59,14.95Z"/><path class="cls-2" d="m150.52,154.13v7.96c-3.05-.69-6.47-.93-10.25-.57-.08,0-.14.02-.22.02-.03,0-.08.02-.13.02v-7.43h10.6Z"/><path class="cls-3" d="m62.21,66.96v3.08h4.97v2.87h-4.97v3.34h5.62v2.97h-9.33v-15.24h9.33v2.97h-5.62Zm3.39-6.03l-5.23,2.19v-2.56l5.23-2.52v2.89Z"/><path class="cls-3" d="m70.27,69.87c.51-.94,1.23-1.66,2.15-2.17s1.97-.76,3.16-.76c1.52,0,2.79.4,3.81,1.19,1.02.8,1.69,1.92,2.01,3.36h-3.95c-.33-.93-.98-1.39-1.93-1.39-.68,0-1.22.26-1.63.79-.41.53-.61,1.28-.61,2.27s.2,1.74.61,2.27c.4.53.95.79,1.63.79.96,0,1.6-.46,1.93-1.39h3.95c-.32,1.42-.99,2.53-2.02,3.34s-2.29,1.22-3.8,1.22c-1.19,0-2.24-.25-3.16-.76s-1.64-1.23-2.15-2.17-.77-2.04-.77-3.3.26-2.36.77-3.3Z"/><path class="cls-3" d="m85.69,78.64c-.95-.51-1.69-1.23-2.24-2.17-.54-.94-.81-2.04-.81-3.3s.27-2.34.82-3.29c.55-.95,1.3-1.67,2.26-2.18.96-.51,2.03-.76,3.21-.76s2.26.25,3.21.76c.96.51,1.71,1.23,2.26,2.18.55.95.82,2.04.82,3.29s-.28,2.34-.84,3.29c-.56.95-1.32,1.67-2.28,2.18-.96.51-2.04.76-3.22.76s-2.25-.25-3.2-.76Zm5.01-3.23c.5-.52.75-1.27.75-2.24s-.24-1.71-.73-2.24c-.49-.52-1.08-.78-1.79-.78s-1.32.26-1.8.77-.72,1.26-.72,2.25.23,1.71.71,2.24c.47.52,1.06.78,1.77.78s1.31-.26,1.81-.78Z"/><path class="cls-3" d="m100.91,63.16v16.06h-3.71v-16.06h3.71Z"/><path class="cls-3" d="m114.96,74.06h-8.4c.06.75.3,1.33.73,1.73.43.4.95.6,1.57.6.93,0,1.57-.39,1.93-1.17h3.95c-.2.8-.57,1.51-1.1,2.15-.53.64-1.19,1.14-1.99,1.5-.8.36-1.69.54-2.67.54-1.19,0-2.24-.25-3.17-.76-.93-.51-1.65-1.23-2.17-2.17s-.78-2.04-.78-3.3.26-2.36.77-3.3,1.23-1.66,2.16-2.17,1.99-.76,3.19-.76,2.21.25,3.13.74,1.62,1.19,2.14,2.11c.51.91.77,1.98.77,3.19,0,.35-.02.71-.06,1.09Zm-3.73-2.06c0-.64-.22-1.14-.65-1.52-.43-.38-.98-.56-1.63-.56s-1.15.18-1.57.54-.69.88-.79,1.54h4.65Z"/><path class="cls-3" d="m67.98,102.59h-5.69l-.91,2.69h-3.89l5.51-15.24h4.3l5.51,15.24h-3.93l-.91-2.69Zm-.96-2.87l-1.89-5.58-1.87,5.58h3.75Z"/><path class="cls-3" d="m74.53,95.92c.51-.94,1.23-1.66,2.15-2.17s1.97-.76,3.16-.76c1.52,0,2.79.4,3.81,1.19,1.02.8,1.69,1.92,2.01,3.36h-3.95c-.33-.93-.98-1.39-1.93-1.39-.68,0-1.22.26-1.63.79-.41.53-.61,1.28-.61,2.27s.2,1.74.61,2.27c.4.53.95.79,1.63.79.96,0,1.6-.46,1.93-1.39h3.95c-.32,1.42-.99,2.53-2.02,3.34s-2.29,1.22-3.8,1.22c-1.19,0-2.24-.25-3.16-.76s-1.64-1.23-2.15-2.17-.77-2.04-.77-3.3.26-2.36.77-3.3Z"/><path class="cls-3" d="m87.66,95.92c.51-.94,1.23-1.66,2.15-2.17s1.97-.76,3.16-.76c1.52,0,2.79.4,3.81,1.19,1.02.8,1.69,1.92,2.01,3.36h-3.95c-.33-.93-.98-1.39-1.93-1.39-.68,0-1.22.26-1.63.79-.41.53-.61,1.28-.61,2.27s.2,1.74.61,2.27c.4.53.95.79,1.63.79.96,0,1.6-.46,1.93-1.39h3.95c-.32,1.42-.99,2.53-2.02,3.34s-2.29,1.22-3.8,1.22c-1.19,0-2.24-.25-3.16-.76s-1.64-1.23-2.15-2.17-.77-2.04-.77-3.3.26-2.36.77-3.3Z"/><path class="cls-3" d="m106.1,93.61c.65-.38,1.38-.58,2.17-.58v3.93h-1.02c-.93,0-1.62.2-2.08.6-.46.4-.69,1.1-.69,2.09v5.62h-3.71v-12.11h3.71v2.02c.43-.67.98-1.19,1.63-1.57Z"/><path class="cls-3" d="m121.41,100.11h-8.4c.06.75.3,1.33.73,1.73.43.4.95.6,1.57.6.93,0,1.57-.39,1.93-1.17h3.95c-.2.8-.57,1.51-1.1,2.15-.53.64-1.19,1.14-1.99,1.5-.8.36-1.69.54-2.67.54-1.19,0-2.24-.25-3.17-.76-.93-.51-1.65-1.23-2.17-2.17s-.78-2.04-.78-3.3.26-2.36.77-3.3,1.23-1.66,2.16-2.17,1.99-.76,3.19-.76,2.21.25,3.13.74,1.62,1.19,2.14,2.11c.51.91.77,1.98.77,3.19,0,.35-.02.71-.06,1.09Zm-3.47-10.05l-5.23,2.19v-2.56l5.23-2.52v2.89Zm-.26,7.99c0-.64-.22-1.14-.65-1.52-.43-.38-.98-.56-1.63-.56s-1.15.18-1.57.54-.69.88-.79,1.54h4.65Z"/><path class="cls-3" d="m123.39,95.92c.47-.94,1.11-1.66,1.92-2.17s1.71-.76,2.71-.76c.8,0,1.52.17,2.18.5.66.33,1.18.78,1.55,1.35v-5.62h3.71v16.06h-3.71v-1.74c-.35.58-.84,1.04-1.49,1.39-.64.35-1.39.52-2.25.52-1,0-1.9-.26-2.71-.77s-1.45-1.25-1.92-2.19c-.47-.95-.71-2.04-.71-3.29s.23-2.34.71-3.28Zm7.6,1.11c-.51-.54-1.14-.8-1.88-.8s-1.36.26-1.88.79-.77,1.26-.77,2.18.26,1.66.77,2.2c.51.54,1.14.81,1.88.81s1.36-.27,1.88-.8c.51-.54.77-1.27.77-2.19s-.26-1.66-.77-2.19Z"/><path class="cls-3" d="m138.43,91.33c-.41-.38-.62-.86-.62-1.42s.21-1.06.62-1.44c.41-.38.94-.58,1.6-.58s1.16.19,1.57.58c.41.38.62.87.62,1.44s-.21,1.04-.62,1.42c-.41.38-.94.58-1.57.58s-1.18-.19-1.6-.58Zm3.44,1.83v12.11h-3.71v-12.11h3.71Z"/><path class="cls-3" d="m151.32,102.13v3.15h-1.89c-1.35,0-2.4-.33-3.15-.99-.75-.66-1.13-1.73-1.13-3.22v-4.82h-1.48v-3.08h1.48v-2.95h3.71v2.95h2.43v3.08h-2.43v4.86c0,.36.09.62.26.78.17.16.46.24.87.24h1.32Z"/><path class="cls-3" d="m164.73,100.11h-8.4c.06.75.3,1.33.73,1.73s.95.6,1.57.6c.93,0,1.57-.39,1.93-1.17h3.95c-.2.8-.57,1.51-1.1,2.15-.53.64-1.19,1.14-1.99,1.5-.8.36-1.69.54-2.67.54-1.19,0-2.24-.25-3.17-.76-.93-.51-1.65-1.23-2.17-2.17-.52-.94-.78-2.04-.78-3.3s.26-2.36.77-3.3,1.23-1.66,2.16-2.17,1.99-.76,3.19-.76,2.21.25,3.12.74c.91.49,1.62,1.19,2.14,2.11.51.91.77,1.98.77,3.19,0,.35-.02.71-.07,1.09Zm-3.47-10.05l-5.23,2.19v-2.56l5.23-2.52v2.89Zm-.26,7.99c0-.64-.22-1.14-.65-1.52-.43-.38-.98-.56-1.63-.56s-1.15.18-1.57.54c-.43.36-.69.88-.79,1.54h4.65Z"/><path class="cls-3" d="m178.1,100.11h-8.4c.06.75.3,1.33.73,1.73s.95.6,1.57.6c.93,0,1.57-.39,1.93-1.17h3.95c-.2.8-.57,1.51-1.1,2.15-.53.64-1.19,1.14-1.99,1.5-.8.36-1.69.54-2.67.54-1.19,0-2.24-.25-3.17-.76-.93-.51-1.65-1.23-2.17-2.17-.52-.94-.78-2.04-.78-3.3s.26-2.36.77-3.3,1.23-1.66,2.16-2.17,1.99-.76,3.19-.76,2.21.25,3.12.74c.91.49,1.62,1.19,2.14,2.11.51.91.77,1.98.77,3.19,0,.35-.02.71-.07,1.09Zm-3.73-2.06c0-.64-.22-1.14-.65-1.52-.43-.38-.98-.56-1.63-.56s-1.15.18-1.57.54c-.43.36-.69.88-.79,1.54h4.65Z"/><path class="cls-2" d="m126.8,79.23c32.98-2.08,67.14-2.39,100.22-2.24,7.45-.26,14.33,4.9,16.07,12.15,2.79,10.47-6.38,20.9-17.09,19.32-8.02-.71-14.5-7.95-12.49-16.06.5-1.8,1.42-3.45,2.68-4.75-2.16,2.87-2.63,6.68-1.49,10.02,3.26,10.23,18.84,10.9,23.52,1.57,4.16-7.7-1.2-17.39-9.96-17.73-2.68-.07-11.94.05-14.78.04-28.56-.11-58.23-.46-86.67-2.31h0Z"/><path class="cls-2" d="m200.93,73.28c12.14-1.52,24.36-1.83,36.55-2.2,1.43-.05,3.06-.07,4.38-.63,5.66-2,5.46-9.95.07-12.22-6.1-2.92-13.26,3.3-9.48,9.81-2.92-2.51-2.85-7.39-.36-10.35,4.14-4.97,12.48-4.4,16.27.76,5.36,7.19.02,16.87-8.72,17.1-12.96.22-25.85-.53-38.71-2.29h0Z"/><path class="cls-2" d="m158.73,66.43c14.14-1.28,28.26-1.63,42.41-1.99,2.91-.08,5.85-.12,8.74-.25,1.51-.04,3.09-.26,4.48-.81,5.71-1.89,8.01-9.28,4.58-14.16-3.41-5.2-11.54-6.28-16.13-1.98-3.13,2.75-4.21,8.14-1.47,12.12-1.72-1.63-2.8-4.07-2.76-6.6.2-12.34,16.98-15.25,23.67-5.92,7.03,9.82-.42,22.09-12.16,21.92-17.17.21-34.27-.55-51.36-2.33h0Z"/></svg>